<svg width="207" height="24" viewBox="0 0 207 24" fill="none" xmlns="http://www.w3.org/2000/svg">
<path d="M14.9323 0.267424L9.06592 6.13379L14.9323 12.0002L20.7987 6.13379L14.9323 0.267424Z" fill="#27E64A"/>
<path d="M20.799 6.13363L14.9326 12L20.799 17.8664L26.6653 12L20.799 6.13363Z" fill="#05B343"/>
<path d="M14.9323 11.9998L9.06592 17.8662L14.9323 23.7326L20.7987 17.8662L14.9323 11.9998Z" fill="#1ECAED"/>
<rect x="3.19971" y="12" width="4.14815" height="4.14815" transform="rotate(-45 3.19971 12)" fill="#B95311"/>
<rect x="0.266602" y="9.06689" width="4.14815" height="4.14815" transform="rotate(-45 0.266602 9.06689)" fill="#F8D009"/>
<rect x="0.266602" y="14.9331" width="4.14815" height="4.14815" transform="rotate(-45 0.266602 14.9331)" fill="#EC6212"/>
<path d="M38.114 5.87397C35.1746 5.87397 33.7166 7.68467 33.7166 9.75404C33.7166 11.7058 34.9159 12.8346 37.5261 13.2814C39.3133 13.6106 39.6896 14.0339 39.6896 14.7629C39.6896 15.4683 39.1487 15.8916 38.2081 15.8916C37.1734 15.8916 36.515 15.3978 36.4914 14.4336H33.4814C33.552 16.7852 35.1981 18.3137 38.1375 18.3137C40.6067 18.3137 42.7466 17.1379 42.7466 14.4336C42.7466 12.4818 41.7589 11.3061 38.8665 10.8122C37.1969 10.5301 36.7736 10.1773 36.7736 9.44834C36.7736 8.76639 37.2204 8.27256 38.0905 8.27256C39.0076 8.27256 39.4309 8.76639 39.4544 9.63647H42.4879C42.3939 7.37897 40.6302 5.87397 38.114 5.87397Z" fill="black"/>
<path d="M51.1407 5.87397C49.1184 5.87397 48.0132 6.76757 47.3547 7.7317L47.1431 6.13265H44.5093V23.1109H47.5664V16.7382C48.1778 17.6082 49.4241 18.3137 51.1407 18.3137C54.3389 18.3137 56.6904 15.5859 56.6904 12.0821C56.6904 8.57827 54.3389 5.87397 51.1407 5.87397ZM50.5058 8.74287C52.1989 8.74287 53.5158 10.0362 53.5158 12.0821C53.5158 14.1279 52.1754 15.4448 50.5058 15.4448C49.0243 15.4448 47.5193 14.269 47.4958 12.1761V12.0351C47.4958 9.89514 49.0008 8.74287 50.5058 8.74287Z" fill="black"/>
<path d="M64.8279 6.01507C62.8056 6.01507 61.7474 6.97921 61.3476 8.03741L61.0654 6.13265H58.4317V18.055H61.4887V11.988C61.5357 10.9063 61.8885 10.2244 62.4528 9.77756C63.1583 9.2367 63.8873 9.07209 64.8279 9.07209V6.01507Z" fill="black"/>
<path d="M71.2094 5.87397C67.6586 5.87397 65.2835 8.50772 65.2835 12.1056C65.2835 15.8681 67.6821 18.3137 71.2094 18.3137C74.1019 18.3137 75.9361 16.8322 76.6651 14.3161H73.7021C73.3729 15.2097 72.4793 15.7035 71.3035 15.7035C69.6339 15.7035 68.5287 14.5983 68.4346 13.0227H76.7356V12.0821C76.7356 7.84928 74.3605 5.87397 71.2094 5.87397ZM71.1389 8.41366C72.6439 8.41366 73.6315 9.40131 73.6551 10.9063H68.4581C68.5992 9.44834 69.6104 8.41366 71.1389 8.41366Z" fill="black"/>
<path d="M82.9812 5.87397C80.1593 5.87397 78.3721 7.63764 78.2311 10.0597H81.194C81.194 9.09561 81.97 8.4842 82.9812 8.4842C84.0629 8.4842 84.6508 9.11912 84.6508 10.2949V10.7417L81.5703 11.3061C79.4539 11.6588 77.8783 12.5524 77.8783 14.8804C77.8783 17.0204 79.3833 18.3137 81.4997 18.3137C83.1928 18.3137 84.2746 17.5612 84.9095 16.5971L85.0976 18.055H87.7078V10.2244C87.7078 7.30842 85.8031 5.87397 82.9812 5.87397ZM84.6508 12.7876V13.1403C84.6508 13.7282 84.4862 14.3161 84.2275 14.7158C83.8042 15.4213 83.0753 15.7975 82.3228 15.7975C81.4292 15.7975 80.9353 15.3272 80.9353 14.6218C80.9353 13.8222 81.4762 13.4695 82.2757 13.2814L84.6508 12.7876Z" fill="black"/>
<path d="M101.315 0.888672H98.2575V7.426C97.6226 6.57944 96.3763 5.87397 94.6831 5.87397C91.4615 5.87397 89.1335 8.57827 89.1335 12.0821C89.1335 15.5859 91.4615 18.3137 94.6596 18.3137C96.7055 18.3137 97.7872 17.4201 98.4456 16.456L98.6808 18.055H101.315V0.888672ZM95.2945 8.74287C96.776 8.74287 98.281 9.89514 98.3046 12.0115V12.1526C98.3046 14.2926 96.7995 15.4448 95.2945 15.4448C93.6014 15.4448 92.2846 14.1279 92.2846 12.0821C92.2846 10.0597 93.6249 8.74287 95.2945 8.74287Z" fill="black"/>
<path d="M107.62 5.87397C104.681 5.87397 103.223 7.68467 103.223 9.75404C103.223 11.7058 104.422 12.8346 107.032 13.2814C108.819 13.6106 109.196 14.0339 109.196 14.7629C109.196 15.4683 108.655 15.8916 107.714 15.8916C106.679 15.8916 106.021 15.3978 105.997 14.4336H102.987C103.058 16.7852 104.704 18.3137 107.644 18.3137C110.113 18.3137 112.253 17.1379 112.253 14.4336C112.253 12.4818 111.265 11.3061 108.373 10.8122C106.703 10.5301 106.28 10.1773 106.28 9.44834C106.28 8.76639 106.726 8.27256 107.597 8.27256C108.514 8.27256 108.937 8.76639 108.96 9.63647H111.994C111.9 7.37897 110.136 5.87397 107.62 5.87397Z" fill="black"/>
<path d="M116.978 0.888672H113.945V18.055H116.978V11.7529C116.978 9.77756 117.919 8.83694 119.095 8.83694C120.2 8.83694 120.788 9.58944 120.788 10.9769V18.055H123.868V10.3184C123.868 7.61413 122.551 5.87397 120.012 5.87397C118.46 5.87397 117.496 6.60296 116.978 7.37897V0.888672Z" fill="black"/>
<path d="M131.294 5.87397C127.743 5.87397 125.368 8.50772 125.368 12.1056C125.368 15.8681 127.766 18.3137 131.294 18.3137C134.186 18.3137 136.02 16.8322 136.749 14.3161H133.786C133.457 15.2097 132.563 15.7035 131.388 15.7035C129.718 15.7035 128.613 14.5983 128.519 13.0227H136.82V12.0821C136.82 7.84928 134.445 5.87397 131.294 5.87397ZM131.223 8.41366C132.728 8.41366 133.716 9.40131 133.739 10.9063H128.542C128.683 9.44834 129.695 8.41366 131.223 8.41366Z" fill="black"/>
<path d="M143.862 5.87397C140.311 5.87397 137.936 8.50772 137.936 12.1056C137.936 15.8681 140.334 18.3137 143.862 18.3137C146.754 18.3137 148.588 16.8322 149.317 14.3161H146.354C146.025 15.2097 145.131 15.7035 143.956 15.7035C142.286 15.7035 141.181 14.5983 141.087 13.0227H149.388V12.0821C149.388 7.84928 147.013 5.87397 143.862 5.87397ZM143.791 8.41366C145.296 8.41366 146.284 9.40131 146.307 10.9063H141.11C141.251 9.44834 142.263 8.41366 143.791 8.41366Z" fill="black"/>
<path d="M154.998 3.24023H151.918L151.894 6.13265H149.943V8.90748H151.894L151.847 14.4572C151.824 17.1615 153.164 18.2197 155.774 18.2197C156.715 18.2197 157.326 18.1021 157.703 17.961V15.2802C157.373 15.3743 157.044 15.4448 156.456 15.4448C155.281 15.4448 154.904 14.951 154.904 13.7282L154.951 8.90748H157.703V6.13265H154.975L154.998 3.24023Z" fill="black"/>
<path d="M160.797 14.6218C159.739 14.6218 158.915 15.3978 158.915 16.456C158.915 17.5142 159.739 18.3137 160.797 18.3137C161.831 18.3137 162.678 17.5142 162.678 16.456C162.678 15.3978 161.831 14.6218 160.797 14.6218Z" fill="black"/>
<path d="M169.051 5.87397C165.571 5.87397 163.078 8.50772 163.078 12.1056C163.078 15.7975 165.571 18.3137 169.051 18.3137C171.802 18.3137 174.036 16.8087 174.601 13.8458H171.614C171.332 14.8099 170.415 15.5154 169.192 15.5154C167.452 15.5154 166.229 14.0809 166.229 12.1056C166.229 10.0833 167.475 8.64881 169.122 8.64881C170.321 8.64881 171.238 9.26022 171.591 10.3419H174.554C174.107 7.33194 171.849 5.87397 169.051 5.87397Z" fill="black"/>
<path d="M181.694 5.87397C178.12 5.87397 175.462 8.39014 175.462 12.0821C175.462 15.774 178.12 18.3137 181.694 18.3137C185.292 18.3137 187.973 15.774 187.973 12.0821C187.973 8.39014 185.292 5.87397 181.694 5.87397ZM181.717 8.64881C183.575 8.64881 184.798 10.1068 184.798 12.0821C184.798 14.0339 183.575 15.5154 181.717 15.5154C179.883 15.5154 178.613 14.0339 178.613 12.0821C178.613 10.1068 179.883 8.64881 181.717 8.64881Z" fill="black"/>
<path d="M202.521 5.87397C200.828 5.87397 199.652 6.83811 199.087 7.96686C198.523 6.64999 197.371 5.87397 195.678 5.87397C194.126 5.87397 193.044 6.6735 192.503 7.68467L192.268 6.13265H189.658V18.055H192.691V11.7529C192.691 9.77756 193.608 8.83694 194.784 8.83694C195.889 8.83694 196.454 9.58944 196.454 10.9769V18.055H199.511V11.6118C199.558 9.73053 200.475 8.83694 201.604 8.83694C202.732 8.83694 203.273 9.58944 203.273 10.9769V18.055H206.33V10.3184C206.33 7.61413 205.06 5.87397 202.521 5.87397Z" fill="black"/>
</svg>
